<svg width="500" height="500">
  <rect x="0" y="0" width="500" height="500" fill="#FFC107"/>
  <path d="M100 300 Q 150 350, 200 300 Q 250 250, 200 200 Q 150 150, 100 200 Q 50 250, 100 300" fill="#ff69b4"/>
  <path d="M400 300 Q 350 350, 300 300 Q 250 250, 300 200 Q 350 150, 400 200 Q 450 250, 400 300" fill="#ff69b4"/>
  <path d="M250 150 Q 225 175, 200 150 Q 175 125, 200 100 Q 225 75, 250 100 Q 275 125, 250 150" fill="#ff69b4"/>
<text x="250" y="50" text-anchor="middle" font-size="40" fill="#333" font-family="Verdana">Lakshitha</text>
  <text x="250" y="450" text-anchor="middle" font-size="40" fill="#333" font-family="Verdana">Anuththara</text>
</svg>
